<svg width="12" height="12" viewBox="0 0 12 12" fill="none" xmlns="http://www.w3.org/2000/svg">
<path d="M5.99996 8.16496C4.80496 8.16496 3.83496 7.19496 3.83496 5.99996C3.83496 4.80496 4.80496 3.83496 5.99996 3.83496C7.19496 3.83496 8.16496 4.80496 8.16496 5.99996C8.16496 7.19496 7.19496 8.16496 5.99996 8.16496ZM5.99996 4.58496C5.21996 4.58496 4.58496 5.21996 4.58496 5.99996C4.58496 6.77996 5.21996 7.41496 5.99996 7.41496C6.77996 7.41496 7.41496 6.77996 7.41496 5.99996C7.41496 5.21996 6.77996 4.58496 5.99996 4.58496Z" fill="#1C1C28"/>
<path d="M5.99992 10.5102C4.11992 10.5102 2.34492 9.41023 1.12492 7.50023C0.594917 6.67523 0.594917 5.33023 1.12492 4.50023C2.34992 2.59023 4.12492 1.49023 5.99992 1.49023C7.87492 1.49023 9.64992 2.59023 10.8699 4.50023C11.3999 5.32523 11.3999 6.67023 10.8699 7.50023C9.64992 9.41023 7.87492 10.5102 5.99992 10.5102ZM5.99992 2.24023C4.38492 2.24023 2.83992 3.21023 1.75992 4.90523C1.38492 5.49023 1.38492 6.51023 1.75992 7.09523C2.83992 8.79023 4.38492 9.76023 5.99992 9.76023C7.61492 9.76023 9.15992 8.79023 10.2399 7.09523C10.6149 6.51023 10.6149 5.49023 10.2399 4.90523C9.15992 3.21023 7.61492 2.24023 5.99992 2.24023Z" fill="#1C1C28"/>
</svg>
