<svg width="14" height="14" viewBox="0 0 14 14" fill="none" xmlns="http://www.w3.org/2000/svg">
<rect width="14" height="14" fill="#F8F8F9"/>
<path d="M5.83335 13.2712H5.25002C2.08252 13.2712 0.729187 11.9178 0.729187 8.75033V5.25033C0.729187 2.08283 2.08252 0.729492 5.25002 0.729492H8.75002C11.9175 0.729492 13.2709 2.08283 13.2709 5.25033V6.41699C13.2709 6.65616 13.0725 6.85449 12.8334 6.85449C12.5942 6.85449 12.3959 6.65616 12.3959 6.41699V5.25033C12.3959 2.56116 11.4392 1.60449 8.75002 1.60449H5.25002C2.56085 1.60449 1.60419 2.56116 1.60419 5.25033V8.75033C1.60419 11.4395 2.56085 12.3962 5.25002 12.3962H5.83335C6.07252 12.3962 6.27085 12.5945 6.27085 12.8337C6.27085 13.0728 6.07252 13.2712 5.83335 13.2712Z" fill="#99A1B7"/>
<path d="M12.8335 5.39551H1.18433C0.94516 5.39551 0.746826 5.19717 0.746826 4.95801C0.746826 4.71884 0.94516 4.52051 1.18433 4.52051H12.8335C13.0726 4.52051 13.271 4.71884 13.271 4.95801C13.271 5.19717 13.0726 5.39551 12.8335 5.39551Z" fill="#99A1B7"/>
<path d="M7.00014 9.47949H1.18433C0.94516 9.47949 0.746826 9.28116 0.746826 9.04199C0.746826 8.80283 0.94516 8.60449 1.18433 8.60449H7.00014C7.23931 8.60449 7.43764 8.80283 7.43764 9.04199C7.43764 9.28116 7.23931 9.47949 7.00014 9.47949Z" fill="#99A1B7"/>
<path d="M4.96405 13.2654C4.72488 13.2654 4.52655 13.067 4.52655 12.8279V1.17871C4.52655 0.939544 4.72488 0.741211 4.96405 0.741211C5.20322 0.741211 5.40155 0.939544 5.40155 1.17871V12.8279C5.40155 13.067 5.20905 13.2654 4.96405 13.2654Z" fill="#99A1B7"/>
<path d="M9.04736 7.43203C8.8082 7.43203 8.60986 7.23369 8.60986 6.99453V1.17871C8.60986 0.939544 8.8082 0.741211 9.04736 0.741211C9.28653 0.741211 9.48486 0.939544 9.48486 1.17871V6.99453C9.48486 7.23369 9.29236 7.43203 9.04736 7.43203Z" fill="#99A1B7"/>
<path d="M8.61004 13.2711C8.36504 13.2711 8.14336 13.1836 7.98003 13.0202C7.7817 12.8277 7.69421 12.5419 7.74088 12.2444L7.87503 11.317C7.9042 11.0953 8.03836 10.827 8.2017 10.6636L10.6225 8.24277C10.9375 7.92777 11.2467 7.76444 11.5734 7.72944C11.9759 7.6886 12.3784 7.86361 12.7575 8.24277C13.1367 8.62194 13.3117 9.01862 13.2709 9.42696C13.2417 9.75362 13.0725 10.0628 12.7575 10.3778L10.3367 12.7986C10.1792 12.9561 9.91085 13.0903 9.68335 13.1253L8.76171 13.2594C8.70921 13.2653 8.65671 13.2711 8.61004 13.2711ZM11.6784 8.60444C11.6725 8.60444 11.6609 8.60444 11.655 8.60444C11.5384 8.6161 11.3984 8.70357 11.235 8.86691L8.81419 11.2878C8.78502 11.3169 8.74419 11.4044 8.73835 11.4453L8.6042 12.3727L9.55504 12.2678C9.59587 12.262 9.68338 12.2153 9.71255 12.192L12.1334 9.7711C12.2967 9.60777 12.3842 9.46779 12.3959 9.35112C12.4075 9.21695 12.32 9.05941 12.1334 8.87275C11.9584 8.69191 11.8067 8.60444 11.6784 8.60444Z" fill="#99A1B7"/>
<path d="M12.0984 10.856C12.0575 10.856 12.0225 10.8501 11.9817 10.8385C11.1067 10.5935 10.4067 9.89346 10.1617 9.01846C10.0975 8.78512 10.2317 8.546 10.4651 8.48184C10.7042 8.41767 10.9375 8.55185 11.0017 8.78518C11.165 9.36851 11.6317 9.83516 12.2151 9.99849C12.4484 10.0627 12.5826 10.3077 12.5184 10.5352C12.4659 10.7335 12.285 10.856 12.0984 10.856Z" fill="#99A1B7"/>
</svg>
