<svg width="24" height="24" viewBox="0 0 24 24" fill="none" xmlns="http://www.w3.org/2000/svg">
<rect width="24" height="24" rx="6" transform="matrix(-1 0 0 1 24 0)" fill="white"/>
<rect x="-0.25" y="0.25" width="23.5" height="23.5" rx="5.75" transform="matrix(-1 0 0 1 23.5 0)" stroke="#99A1B7" stroke-opacity="0.4" stroke-width="0.5"/>
<path d="M13.4999 17.375H10.4999C7.78494 17.375 6.62494 16.215 6.62494 13.5V10.5C6.62494 7.785 7.78494 6.625 10.4999 6.625H11.4999C11.7049 6.625 11.8749 6.795 11.8749 7C11.8749 7.205 11.7049 7.375 11.4999 7.375H10.4999C8.19494 7.375 7.37494 8.195 7.37494 10.5V13.5C7.37494 15.805 8.19494 16.625 10.4999 16.625H13.4999C15.8049 16.625 16.6249 15.805 16.6249 13.5V12.5C16.6249 12.295 16.7949 12.125 16.9999 12.125C17.2049 12.125 17.3749 12.295 17.3749 12.5V13.5C17.3749 16.215 16.2149 17.375 13.4999 17.375Z" fill="#292D32"/>
<path d="M10.25 14.8453C9.94498 14.8453 9.66498 14.7353 9.45998 14.5353C9.21498 14.2903 9.10998 13.9353 9.16498 13.5603L9.37998 12.0553C9.41998 11.7653 9.60998 11.3903 9.81498 11.1853L13.755 7.24527C14.75 6.25027 15.76 6.25027 16.755 7.24527C17.3 7.79027 17.545 8.34527 17.495 8.90027C17.45 9.35027 17.21 9.79027 16.755 10.2403L12.815 14.1803C12.61 14.3853 12.235 14.5753 11.945 14.6153L10.44 14.8303C10.375 14.8453 10.31 14.8453 10.25 14.8453ZM14.285 7.77527L10.345 11.7153C10.25 11.8103 10.14 12.0303 10.12 12.1603L9.90498 13.6653C9.88498 13.8103 9.91498 13.9303 9.98998 14.0053C10.065 14.0803 10.185 14.1103 10.33 14.0903L11.835 13.8753C11.965 13.8553 12.19 13.7453 12.28 13.6503L16.22 9.71027C16.545 9.38527 16.715 9.09527 16.74 8.82527C16.77 8.50027 16.6 8.15527 16.22 7.77027C15.42 6.97027 14.87 7.19527 14.285 7.77527Z" fill="#292D32"/>
<path d="M15.9252 10.9151C15.8902 10.9151 15.8551 10.9101 15.8252 10.9001C14.5101 10.5301 13.4652 9.48514 13.0952 8.17014C13.0402 7.97014 13.1552 7.76514 13.3552 7.70514C13.5552 7.65014 13.7602 7.76514 13.8152 7.96514C14.1152 9.03014 14.9601 9.87514 16.0251 10.1751C16.2251 10.2301 16.3402 10.4401 16.2852 10.6401C16.2401 10.8101 16.0902 10.9151 15.9252 10.9151Z" fill="#292D32"/>
</svg>
